HIERARCHY
ROOT Hips
{
  OFFSET 5.84602e-005 68.8428 3.50346
  CHANNELS 6 Xposition Yposition Zposition Zrotation Xrotation Yrotation
  JOINT Spine
  {
    OFFSET 0 8.597 -4.6522
    CHANNELS 3 Zrotation Xrotation Yrotation
    JOINT Spine1
    {
      OFFSET 0 7.8454 0.4098
      CHANNELS 3 Zrotation Xrotation Yrotation
      JOINT Spine2
      {
        OFFSET 0 9.7078 -2.1609
        CHANNELS 3 Zrotation Xrotation Yrotation
        JOINT Neck
        {
          OFFSET 0 21.8761 -0.4549
          CHANNELS 3 Zrotation Xrotation Yrotation
          JOINT Head
          {
            OFFSET 0 12.3537 3.3602
            CHANNELS 3 Zrotation Xrotation Yrotation
            End Site
            {
              OFFSET 0.0001 18.9506 0.5657
            }
          }
        }
        JOINT LeftShoulder
        {
          OFFSET 2.2086 21.1115 7.2329
          CHANNELS 3 Zrotation Xrotation Yrotation
          JOINT LeftArm
          {
            OFFSET 13.1193 3.0282 -4.8998
            CHANNELS 3 Zrotation Xrotation Yrotation
            JOINT LeftForeArm
            {
              OFFSET 27.4081 -0.0973053 -0.2375
              CHANNELS 3 Zrotation Xrotation Yrotation
              JOINT LeftHand
              {
                OFFSET 22.8641 0.0662994 -0.1369
                CHANNELS 3 Zrotation Xrotation Yrotation
                JOINT LeftHandIndex1
                {
                  OFFSET 8.8614 0.775009 2.4612
                  CHANNELS 3 Zrotation Xrotation Yrotation
                  JOINT LeftHandIndex2
                  {
                    OFFSET 3.3146 -0.808304 0.5841
                    CHANNELS 3 Zrotation Xrotation Yrotation
                    JOINT LeftHandIndex3
                    {
                      OFFSET 2.2628 -0.552002 0.3989
                      CHANNELS 3 Zrotation Xrotation Yrotation
                      End Site
                      {
                        OFFSET 1.6102 -0.4807 0.2612
                      }
                    }
                  }
                }
                JOINT LeftHandMiddle1
                {
                  OFFSET 8.9937 0.895004 0.2143
                  CHANNELS 3 Zrotation Xrotation Yrotation
                  JOINT LeftHandMiddle2
                  {
                    OFFSET 4.0984 0.0113983 -0.0242
                    CHANNELS 3 Zrotation Xrotation Yrotation
                    JOINT LeftHandMiddle3
                    {
                      OFFSET 2.2716 0.00689697 -0.0138001
                      CHANNELS 3 Zrotation Xrotation Yrotation
                      End Site
                      {
                        OFFSET 2.0404 -0.1441 0.0027
                      }
                    }
                  }
                }
                JOINT LeftHandRing1
                {
                  OFFSET 8.5234 0.597198 -2.0164
                  CHANNELS 3 Zrotation Xrotation Yrotation
                  JOINT LeftHandRing2
                  {
                    OFFSET 3.7188 -0.188293 -0.2328
                    CHANNELS 3 Zrotation Xrotation Yrotation
                    JOINT LeftHandRing3
                    {
                      OFFSET 2.1191 -0.106598 -0.1332
                      CHANNELS 3 Zrotation Xrotation Yrotation
                      End Site
                      {
                        OFFSET 1.8737 -0.2304 -0.0886
                      }
                    }
                  }
                }
                JOINT LeftHandPinky1
                {
                  OFFSET 7.9094 -0.601089 -3.4825
                  CHANNELS 3 Zrotation Xrotation Yrotation
                  JOINT LeftHandPinky2
                  {
                    OFFSET 2.2874 -0.477005 -0.6314
                    CHANNELS 3 Zrotation Xrotation Yrotation
                    JOINT LeftHandPinky3
                    {
                      OFFSET 1.6774 -0.349396 -0.4633
                      CHANNELS 3 Zrotation Xrotation Yrotation
                      End Site
                      {
                        OFFSET 1.4888 -0.4091 -0.3416
                      }
                    }
                  }
                }
                JOINT LeftHandThumb1
                {
                  OFFSET 1.833 -1.3875 1.3896
                  CHANNELS 3 Zrotation Xrotation Yrotation
                  JOINT LeftHandThumb2
                  {
                    OFFSET 3.4129 -1.121 2.5732
                    CHANNELS 3 Zrotation Xrotation Yrotation
                    JOINT LeftHandThumb3
                    {
                      OFFSET 2.2474 -0.804199 1.6192
                      CHANNELS 3 Zrotation Xrotation Yrotation
                      End Site
                      {
                        OFFSET 1.6527 -0.5689 1.1317
                      }
                    }
                  }
                }
              }
            }
          }
        }
        JOINT RightShoulder
        {
          OFFSET -2.2086 21.1115 7.2329
          CHANNELS 3 Zrotation Xrotation Yrotation
          JOINT RightArm
          {
            OFFSET -13.1216 3.0287 -4.9007
            CHANNELS 3 Zrotation Xrotation Yrotation
            JOINT RightForeArm
            {
              OFFSET -27.4081 -0.0973053 -0.2375
              CHANNELS 3 Zrotation Xrotation Yrotation
              JOINT RightHand
              {
                OFFSET -22.8641 0.0664063 -0.1369
                CHANNELS 3 Zrotation Xrotation Yrotation
                JOINT RightHandIndex1
                {
                  OFFSET -8.8614 0.774994 2.4612
                  CHANNELS 3 Zrotation Xrotation Yrotation
                  JOINT RightHandIndex2
                  {
                    OFFSET -3.3146 -0.808304 0.5841
                    CHANNELS 3 Zrotation Xrotation Yrotation
                    JOINT RightHandIndex3
                    {
                      OFFSET -2.2628 -0.552002 0.3989
                      CHANNELS 3 Zrotation Xrotation Yrotation
                      End Site
                      {
                        OFFSET -1.6102 -0.4807 0.2612
                      }
                    }
                  }
                }
                JOINT RightHandMiddle1
                {
                  OFFSET -8.9937 0.894989 0.2143
                  CHANNELS 3 Zrotation Xrotation Yrotation
                  JOINT RightHandMiddle2
                  {
                    OFFSET -4.0984 0.0113983 -0.0242
                    CHANNELS 3 Zrotation Xrotation Yrotation
                    JOINT RightHandMiddle3
                    {
                      OFFSET -2.2716 0.00691223 -0.0138001
                      CHANNELS 3 Zrotation Xrotation Yrotation
                      End Site
                      {
                        OFFSET -2.0404 -0.1441 0.0027
                      }
                    }
                  }
                }
                JOINT RightHandRing1
                {
                  OFFSET -8.5234 0.597198 -2.0164
                  CHANNELS 3 Zrotation Xrotation Yrotation
                  JOINT RightHandRing2
                  {
                    OFFSET -3.7188 -0.188309 -0.2328
                    CHANNELS 3 Zrotation Xrotation Yrotation
                    JOINT RightHandRing3
                    {
                      OFFSET -2.1191 -0.106598 -0.1332
                      CHANNELS 3 Zrotation Xrotation Yrotation
                      End Site
                      {
                        OFFSET -1.8737 -0.2304 -0.0886
                      }
                    }
                  }
                }
                JOINT RightHandPinky1
                {
                  OFFSET -7.9094 -0.601105 -3.4825
                  CHANNELS 3 Zrotation Xrotation Yrotation
                  JOINT RightHandPinky2
                  {
                    OFFSET -2.2874 -0.477005 -0.6314
                    CHANNELS 3 Zrotation Xrotation Yrotation
                    JOINT RightHandPinky3
                    {
                      OFFSET -1.6774 -0.349396 -0.4633
                      CHANNELS 3 Zrotation Xrotation Yrotation
                      End Site
                      {
                        OFFSET -1.4888 -0.4091 -0.3416
                      }
                    }
                  }
                }
                JOINT RightHandThumb1
                {
                  OFFSET -1.833 -1.38751 1.3896
                  CHANNELS 3 Zrotation Xrotation Yrotation
                  JOINT RightHandThumb2
                  {
                    OFFSET -3.41299 -1.12099 2.5732
                    CHANNELS 3 Zrotation Xrotation Yrotation
                    JOINT RightHandThumb3
                    {
                      OFFSET -2.24741 -0.804108 1.6192
                      CHANNELS 3 Zrotation Xrotation Yrotation
                      End Site
                      {
                        OFFSET -1.6527 -0.5689 1.1317
                      }
                    }
                  }
                }
              }
            }
          }
        }
      }
    }
  }
  JOINT RightUpLeg
  {
    OFFSET -9.1966 3.8861 -0.7581
    CHANNELS 3 Zrotation Xrotation Yrotation
    JOINT RightLeg
    {
      OFFSET -0.7359 -41.0265 0
      CHANNELS 3 Zrotation Xrotation Yrotation
      JOINT RightFoot
      {
        OFFSET 0 -40.2855 0
        CHANNELS 3 Zrotation Xrotation Yrotation
        JOINT RightToeBase
        {
          OFFSET 0 -5.6122 11.7359
          CHANNELS 3 Zrotation Xrotation Yrotation
          End Site
          {
            OFFSET 0 0 7.8731
          }
        }
      }
    }
  }
  JOINT LeftUpLeg
  {
    OFFSET 9.1965 3.8864 -0.7581
    CHANNELS 3 Zrotation Xrotation Yrotation
    JOINT LeftLeg
    {
      OFFSET 0.7359 -41.0268 0
      CHANNELS 3 Zrotation Xrotation Yrotation
      JOINT LeftFoot
      {
        OFFSET 0 -40.2855 0
        CHANNELS 3 Zrotation Xrotation Yrotation
        JOINT LeftToeBase
        {
          OFFSET 0 -5.6122 11.7359
          CHANNELS 3 Zrotation Xrotation Yrotation
          End Site
          {
            OFFSET 0 0 7.8731
          }
        }
      }
    }
  }
}
MOTION
Frames:	4
Frame Time:	0.0333333
0.996771 17.1327 0.466007 -6.11154e-015 7.35066 180 -0.572357 14.0359 -0.045522 -1.18915 28.0717 0.061749 -1.18915 28.0717 0.0617498 -7.06849e-006 -0.14789 1.59578e-006 20.447 -28.1886 12.8876 -10.8437 -10.0796 -16.2564 -24.0923 22.8136 -74.0735 11.4855 -13.1549 0.11775 40.749 8.7215 -10.169 3.56609e-007 -4.88783e-007 -2.09414e-007 1.78304e-007 -2.44392e-007 -1.04707e-007 3.56609e-007 -4.88783e-007 -2.09414e-007 3.56609e-007 -4.88783e-007 -2.09414e-007 -0.0146222 -9.01916e-005 -3.99855e-007 3.56607e-007 -4.88757e-007 -2.09476e-007 3.56609e-007 -4.88783e-007 -2.09414e-007 -0.018756 -0.00117658 5.40715e-005 3.56605e-007 -4.88749e-007 -2.09497e-007 3.56609e-007 -4.88783e-007 -2.09414e-007 -0.0122226 -0.00323726 0.000675774 3.56599e-007 -4.88763e-007 -2.09476e-007 3.56609e-007 -4.88783e-007 -2.09414e-007 1.78304e-007 -2.44392e-007 -1.04707e-007 3.56609e-007 -4.88783e-007 -2.09414e-007 10.1439 -10.1199 15.1141 24.1976 23.3061 75.1594 -11.3181 -13.0943 -0.118052 -35.1298 8.21211 9.37318 -1.27222e-014 -3.18055e-015 -0 -4.7888e-007 -6.43787e-007 2.86572e-007 6.36111e-015 -4.77083e-015 6.36111e-015 -1.27222e-014 -3.18055e-015 -0 0.0149838 -8.59681e-005 8.53051e-006 3.18055e-015 -4.77083e-015 -3.18055e-015 -1.27222e-014 -3.18055e-015 -0 0.0189886 -0.00118722 -4.64175e-005 1.59028e-014 3.18055e-015 -0 -1.27222e-014 -3.18055e-015 -0 0.0123047 -0.00325671 -0.000681758 -8.82781e-032 -1.59028e-015 -3.18055e-015 -1.27222e-014 -3.18055e-015 -0 -4.7888e-007 -6.43787e-007 2.86572e-007 6.36111e-015 -4.77083e-015 6.36111e-015 -97.3199 -47.7228 -112.084 -167.22 67.6385 166.145 -2.46563 -16.1416 -1.49681 1.90833e-014 1.59028e-014 -6.36111e-015 97.3451 -47.7803 112.066 167.248 67.6421 -166.174 2.42384 -16.1356 1.51838 -1.92921e-006 -3.63077e-007 -4.82828e-006 
0.996771 17.4198 0.422139 -6.06787e-015 7.70111 180 -0.574357 14.2619 -0.0407771 -1.19649 28.5236 0.0752872 -1.19649 28.5236 0.0752872 -3.42491e-005 -0.146183 1.05888e-005 20.315 -28.0597 12.7876 -10.8565 -10.5523 -16.3561 -24.0923 22.8136 -74.0735 11.4855 -13.155 0.117741 40.9616 8.64068 -10.325 2.11614e-006 5.99602e-008 3.87272e-006 4.79833e-006 -5.17977e-007 9.03326e-006 2.35382e-006 -2.65903e-007 3.73304e-006 2.11614e-006 5.99602e-008 3.87272e-006 -0.0146005 -8.66424e-005 5.94403e-007 2.35449e-006 -2.66375e-007 3.733e-006 2.11614e-006 5.99602e-008 3.87272e-006 -0.0187446 -0.00117166 6.24623e-005 2.35471e-006 -2.66462e-007 3.73297e-006 2.11614e-006 5.99602e-008 3.87272e-006 -0.0122503 -0.00324456 0.000673886 2.35448e-006 -2.66169e-007 3.73291e-006 2.11614e-006 5.99602e-008 3.87272e-006 4.79833e-006 -5.17977e-007 9.03326e-006 2.35382e-006 -2.65903e-007 3.73304e-006 10.118 -10.5948 15.1556 24.1976 23.3061 75.1594 -11.3181 -13.0943 -0.118034 -35.3603 8.10818 9.49017 0 4.77083e-015 -0 5.44767e-006 1.94916e-006 -1.49788e-006 0 1.43125e-014 -0 0 4.77083e-015 -0 0.0149973 -9.33079e-005 -3.75026e-006 -2.89414e-006 1.3353e-006 -1.47865e-006 0 4.77083e-015 -0 0.018985 -0.0011866 -5.08494e-005 6.36111e-015 -9.54166e-015 6.36111e-015 0 4.77083e-015 -0 0.0122739 -0.00324317 -0.000666611 6.36111e-015 -1.11319e-014 -0 0 4.77083e-015 -0 5.44767e-006 1.94916e-006 -1.49788e-006 0 1.43125e-014 -0 -96.3311 -47.8315 -110.99 -167.084 67.9314 166.04 -2.36856 -16.253 -1.4255 -2.61208e-007 -5.85898e-007 -1.56392e-006 96.3562 -47.8915 110.97 167.114 67.9352 -166.071 2.32483 -16.2467 1.44807 2.99075e-007 7.92187e-007 8.40292e-008 
0.996772 17.7071 0.37843 -6.02414e-015 8.05153 180 -0.576388 14.4879 -0.0360095 -1.204 28.9755 0.0889678 -1.204 28.9754 0.0889676 -2.11053e-005 -0.14563 4.38866e-006 20.1834 -27.9305 12.688 -10.8701 -11.0249 -16.4561 -24.0923 22.8136 -74.0735 11.4855 -13.155 0.117763 41.174 8.55927 -10.4807 1.78216e-007 -2.44403e-007 -1.04822e-007 3.18055e-015 0 -3.18055e-015 2.37621e-007 -3.25871e-007 -1.39763e-007 1.78216e-007 -2.44403e-007 -1.04822e-007 -0.0146385 -8.67703e-005 -2.40462e-006 2.3762e-007 -3.25853e-007 -1.39805e-007 1.78216e-007 -2.44403e-007 -1.04822e-007 -0.0187395 -0.00117276 5.43698e-005 2.37618e-007 -3.25848e-007 -1.39819e-007 1.78216e-007 -2.44403e-007 -1.04822e-007 -0.0122342 -0.00323543 0.000666789 2.37614e-007 -3.25858e-007 -1.39805e-007 1.78216e-007 -2.44403e-007 -1.04822e-007 3.18055e-015 0 -3.18055e-015 2.37621e-007 -3.25871e-007 -1.39763e-007 10.0923 -11.0697 15.197 24.1976 23.3061 75.1594 -11.3181 -13.0943 -0.118044 -35.5904 8.00379 9.60669 -9.56816e-007 -1.28824e-006 5.72937e-007 4.78408e-007 6.44119e-007 -2.86468e-007 -1.43522e-006 -1.93236e-006 8.59405e-007 -9.56816e-007 -1.28824e-006 5.72937e-007 0.01499 -8.83262e-005 3.42974e-006 -3.41136e-006 -1.80143e-006 -1.70563e-006 -9.56816e-007 -1.28824e-006 5.72937e-007 0.0190009 -0.00119282 -6.20464e-005 -1.43519e-006 -1.93222e-006 8.5974e-007 -9.56816e-007 -1.28824e-006 5.72937e-007 0.0122454 -0.00324114 -0.000678729 -1.43517e-006 -1.93228e-006 8.59651e-007 -9.56816e-007 -1.28824e-006 5.72937e-007 4.78408e-007 6.44119e-007 -2.86468e-007 -1.43522e-006 -1.93236e-006 8.59405e-007 -95.3376 -47.9278 -109.892 -166.944 68.224 165.932 -2.27134 -16.3644 -1.35404 1.63164e-006 4.28237e-007 4.74637e-006 95.3626 -47.9902 109.869 166.976 68.228 -165.964 2.22564 -16.3577 1.37759 1.59028e-015 1.59028e-015 -3.18055e-015 
0.996773 17.9947 0.334884 -5.98033e-015 8.40193 180 -0.578444 14.7139 -0.0312193 -1.21169 29.4272 0.102795 -1.21169 29.4272 0.102795 1.15985e-006 -0.145896 -1.72266e-007 20.0522 -27.8011 12.5888 -10.8846 -11.4975 -16.5563 -24.0923 22.8136 -74.0735 11.4855 -13.1549 0.117754 41.386 8.47729 -10.6361 6.36111e-015 -1.59028e-015 3.18055e-015 5.93905e-008 -8.14697e-008 -3.49599e-008 -9.54166e-015 1.27222e-014 3.18055e-015 6.36111e-015 -1.59028e-015 3.18055e-015 -0.0146426 -8.43067e-005 -1.27146e-005 -5.29669e-031 -4.77083e-015 -6.36111e-015 6.36111e-015 -1.59028e-015 3.18055e-015 -0.0187349 -0.00118235 7.42417e-005 -3.18055e-015 -7.95139e-015 6.36111e-015 6.36111e-015 -1.59028e-015 3.18055e-015 -0.012256 -0.00324439 0.000681908 -0 0 3.18055e-015 6.36111e-015 -1.59028e-015 3.18055e-015 5.93905e-008 -8.14697e-008 -3.49599e-008 -9.54166e-015 1.27222e-014 3.18055e-015 10.067 -11.5446 15.2382 24.1976 23.3061 75.1594 -11.3181 -13.0943 -0.118065 -35.8203 7.89893 9.72274 -9.56359e-007 -1.28856e-006 5.72831e-007 -1.43454e-006 -1.93284e-006 8.59247e-007 -9.56359e-007 -1.28856e-006 5.72831e-007 -9.56359e-007 -1.28856e-006 5.72831e-007 0.0149961 -8.67156e-005 1.26222e-005 -2.93431e-006 -1.16312e-006 -1.98577e-006 -9.56359e-007 -1.28856e-006 5.72831e-007 0.019009 -0.00119574 -6.42323e-005 1.02219e-006 -1.41388e-006 3.1318e-006 -9.56359e-007 -1.28856e-006 5.72831e-007 0.0122539 -0.00323969 -0.000668797 -9.56323e-007 -1.28851e-006 5.72995e-007 -9.56359e-007 -1.28856e-006 5.72831e-007 -1.43454e-006 -1.93284e-006 8.59247e-007 -9.56359e-007 -1.28856e-006 5.72831e-007 -94.3401 -48.0117 -108.79 -166.801 68.5163 165.82 -2.17388 -16.4759 -1.2824 1.59028e-015 1.59028e-015 -6.36111e-015 94.3647 -48.0766 108.765 166.834 68.5206 -165.854 2.12616 -16.4689 1.30694 -5.77679e-007 -4.562e-007 -3.25289e-006 
